<svg xmlns="http://www.w3.org/2000/svg" width="300" height="450" viewBox="0 0 300 450" fill="none">
  <defs>
    <linearGradient id="bg" x1="0" y1="0" x2="300" y2="450" gradientUnits="userSpaceOnUse">
      <stop stop-color="#0b1020"/>
      <stop offset="1" stop-color="#111a30"/>
    </linearGradient>
    <linearGradient id="sheen" x1="0" y1="0" x2="1" y2="1">
      <stop stop-color="#ffffff" stop-opacity="0.16"/>
      <stop offset="1" stop-color="#ffffff" stop-opacity="0"/>
    </linearGradient>
  </defs>

  <rect width="300" height="450" rx="18" fill="url(#bg)"/>
  <rect x="18" y="18" width="264" height="414" rx="16" fill="rgba(255,255,255,0.06)" stroke="rgba(255,255,255,0.12)" stroke-width="2"/>
  <path d="M42 70c24-20 53-30 88-30 52 0 97 24 130 64v0" stroke="url(#sheen)" stroke-width="18" stroke-linecap="round"/>

  <!-- simple clapper icon -->
  <g transform="translate(86 166)" opacity="0.92">
    <path d="M22 26h106v72a14 14 0 0 1-14 14H36a14 14 0 0 1-14-14V26z" stroke="rgba(255,255,255,0.85)" stroke-width="4"/>
    <path d="M28 26 46 10h110l-18 16H28z" stroke="rgba(255,255,255,0.85)" stroke-width="4"/>
    <path d="M58 10 44 22M90 10 76 22M122 10 108 22" stroke="rgba(255,255,255,0.85)" stroke-width="4" stroke-linecap="round"/>
    <path d="M44 62h72" stroke="rgba(255,255,255,0.55)" stroke-width="4" stroke-linecap="round"/>
    <path d="M44 82h56" stroke="rgba(255,255,255,0.40)" stroke-width="4" stroke-linecap="round"/>
  </g>

  <text x="150" y="360" text-anchor="middle" fill="rgba(255,255,255,0.72)" font-family="Inter, system-ui, -apple-system, Segoe UI, Roboto, Arial" font-size="18" font-weight="600">
    Poster unavailable
  </text>
  <text x="150" y="386" text-anchor="middle" fill="rgba(255,255,255,0.52)" font-family="Inter, system-ui, -apple-system, Segoe UI, Roboto, Arial" font-size="12">
    CineMatch
  </text>
</svg>
